<svg xmlns="http://www.w3.org/2000/svg" viewBox="0 0 512 512" fill="none"><defs><linearGradient id="vcAppBg" x1="256" y1="48" x2="256" y2="464" gradientUnits="userSpaceOnUse"><stop offset="0%" stop-color="#4ADE80"/><stop offset="100%" stop-color="#047857"/></linearGradient><linearGradient id="vcAppPeopleL" x1="170" y1="300" x2="170" y2="452" gradientUnits="userSpaceOnUse"><stop offset="0%" stop-color="#D9F99D"/><stop offset="100%" stop-color="#14B8A6"/></linearGradient><linearGradient id="vcAppPeopleC" x1="256" y1="282" x2="256" y2="452" gradientUnits="userSpaceOnUse"><stop offset="0%" stop-color="#D9F99D"/><stop offset="100%" stop-color="#14B8A6"/></linearGradient><linearGradient id="vcAppPeopleR" x1="342" y1="300" x2="342" y2="452" gradientUnits="userSpaceOnUse"><stop offset="0%" stop-color="#D9F99D"/><stop offset="100%" stop-color="#14B8A6"/></linearGradient><clipPath id="vcAppClip"><rect x="48" y="48" width="416" height="416" rx="88" ry="88"/></clipPath></defs><g clip-path="url(#vcAppClip)"><rect x="48" y="48" width="416" height="416" rx="88" ry="88" fill="url(#vcAppBg)"/><path d="M18 248 C110 228 166 244 226 286" stroke="#FFF" stroke-width="8" stroke-linecap="round"/><path d="M286 286 C346 244 402 228 494 248" stroke="#FFF" stroke-width="8" stroke-linecap="round"/><path d="M78 174 C122 182 162 198 196 224" stroke="#FFF" stroke-width="8" stroke-linecap="round"/><path d="M316 224 C350 198 390 182 434 174" stroke="#FFF" stroke-width="8" stroke-linecap="round"/><path d="M146 206 C182 170 218 148 256 136 C294 148 330 170 366 206" stroke="#FFF" stroke-width="8" stroke-linecap="round" stroke-linejoin="round"/><circle cx="256" cy="198" r="32" fill="#FFF"/><circle cx="170" cy="258" r="22" fill="#FFF"/><circle cx="342" cy="258" r="22" fill="#FFF"/><path d="M142 452 C142 398 132 350 112 320 C126 290 148 276 170 276 C195 276 220 290 231 326 C237 346 242 392 242 452Z" fill="url(#vcAppPeopleL)"/><path d="M202 452 C204 400 212 360 226 334 C238 312 246 304 256 304 C266 304 274 312 286 334 C300 360 308 400 310 452Z" fill="url(#vcAppPeopleC)"/><path d="M370 452 C370 398 380 350 400 320 C386 290 364 276 342 276 C317 276 292 290 281 326 C275 346 270 392 270 452Z" fill="url(#vcAppPeopleR)"/><path d="M174 302 L256 360 L338 302" stroke="#FFF" stroke-width="8" stroke-linecap="round" stroke-linejoin="round"/><path d="M174 302 L298 390" stroke="#FFF" stroke-width="8" stroke-linecap="round"/><path d="M338 302 L214 390" stroke="#FFF" stroke-width="8" stroke-linecap="round"/><path d="M96 284 C142 306 184 342 194 452" stroke="#FFF" stroke-width="8" stroke-linecap="round"/><path d="M416 284 C370 306 328 342 318 452" stroke="#FFF" stroke-width="8" stroke-linecap="round"/><circle cx="256" cy="136" r="18" fill="#FFF"/><circle cx="178" cy="168" r="14" fill="#FFF"/><circle cx="334" cy="168" r="14" fill="#FFF"/><circle cx="146" cy="206" r="10" fill="#FFF"/><circle cx="366" cy="206" r="10" fill="#FFF"/><circle cx="92" cy="286" r="12" fill="#FFF"/><circle cx="194" cy="390" r="18" fill="#FFF"/><circle cx="318" cy="390" r="18" fill="#FFF"/><circle cx="420" cy="286" r="12" fill="#FFF"/></g></svg>