<svg xmlns="http://www.w3.org/2000/svg" viewBox="0 0 512 512" fill="none"><defs><linearGradient id="vcGradMark" x1="256" y1="32" x2="256" y2="480" gradientUnits="userSpaceOnUse"><stop offset="0%" stop-color="#4ADE80"/><stop offset="100%" stop-color="#059669"/></linearGradient><linearGradient id="vcPeopleLeft" x1="170" y1="300" x2="170" y2="470" gradientUnits="userSpaceOnUse"><stop offset="0%" stop-color="#D9F99D"/><stop offset="100%" stop-color="#14B8A6"/></linearGradient><linearGradient id="vcPeopleCenter" x1="256" y1="280" x2="256" y2="470" gradientUnits="userSpaceOnUse"><stop offset="0%" stop-color="#D9F99D"/><stop offset="100%" stop-color="#14B8A6"/></linearGradient><linearGradient id="vcPeopleRight" x1="342" y1="300" x2="342" y2="470" gradientUnits="userSpaceOnUse"><stop offset="0%" stop-color="#D9F99D"/><stop offset="100%" stop-color="#14B8A6"/></linearGradient><clipPath id="vcCalabashClip"><path d="M256 44 C278 44 286 52 284 68 C281 86 288 100 309 113 C355 142 398 180 423 233 C446 281 447 344 419 390 C390 439 329 468 256 468 C183 468 122 439 93 390 C65 344 66 281 89 233 C114 180 157 142 203 113 C224 100 231 86 228 68 C226 52 234 44 256 44Z"/></clipPath></defs><g clip-path="url(#vcCalabashClip)"><path d="M256 44 C278 44 286 52 284 68 C281 86 288 100 309 113 C355 142 398 180 423 233 C446 281 447 344 419 390 C390 439 329 468 256 468 C183 468 122 439 93 390 C65 344 66 281 89 233 C114 180 157 142 203 113 C224 100 231 86 228 68 C226 52 234 44 256 44Z" fill="url(#vcGradMark)"/><path d="M58 245 C130 230 170 242 225 278" stroke="#FFF" stroke-width="8" stroke-linecap="round"/><path d="M287 278 C342 242 382 230 454 245" stroke="#FFF" stroke-width="8" stroke-linecap="round"/><path d="M116 171 C154 178 180 192 208 212" stroke="#FFF" stroke-width="8" stroke-linecap="round"/><path d="M304 212 C332 192 358 178 396 171" stroke="#FFF" stroke-width="8" stroke-linecap="round"/><path d="M150 188 C188 154 219 135 256 126 C293 135 324 154 362 188" stroke="#FFF" stroke-width="8" stroke-linecap="round" stroke-linejoin="round"/><path d="M172 302 L256 360 L340 302" stroke="#FFF" stroke-width="8" stroke-linecap="round" stroke-linejoin="round"/><path d="M172 302 L296 388" stroke="#FFF" stroke-width="8" stroke-linecap="round"/><path d="M340 302 L216 388" stroke="#FFF" stroke-width="8" stroke-linecap="round"/><circle cx="256" cy="215" r="34" fill="#FFF"/><circle cx="170" cy="262" r="26" fill="#FFF"/><circle cx="342" cy="262" r="26" fill="#FFF"/><path d="M150 470 C150 410 138 348 102 304 C120 276 145 266 170 266 C197 266 224 278 236 318 C242 338 246 400 246 470Z" fill="url(#vcPeopleLeft)"/><path d="M204 470 C206 410 214 356 233 324 C244 307 249 302 256 302 C263 302 268 307 279 324 C298 356 306 410 308 470Z" fill="url(#vcPeopleCenter)"/><path d="M362 470 C362 410 374 348 410 304 C392 276 367 266 342 266 C315 266 288 278 276 318 C270 338 266 400 266 470Z" fill="url(#vcPeopleRight)"/><path d="M112 282 C154 304 184 338 198 470" stroke="#FFF" stroke-width="8" stroke-linecap="round"/><path d="M400 282 C358 304 328 338 314 470" stroke="#FFF" stroke-width="8" stroke-linecap="round"/><circle cx="256" cy="126" r="20" fill="#FFF"/><circle cx="182" cy="164" r="16" fill="#FFF"/><circle cx="330" cy="164" r="16" fill="#FFF"/><circle cx="150" cy="208" r="12" fill="#FFF"/><circle cx="362" cy="208" r="12" fill="#FFF"/><circle cx="104" cy="282" r="13" fill="#FFF"/><circle cx="198" cy="370" r="18" fill="#FFF"/><circle cx="314" cy="370" r="18" fill="#FFF"/><circle cx="408" cy="282" r="13" fill="#FFF"/></g></svg>